<?xml version="1.0" encoding="UTF-8" standalone="no"?>
<!-- Created with Inkscape (http://www.inkscape.org/) -->

<svg
   width="16"
   height="16"
   viewBox="0 0 16 16"
   version="1.1"
   id="svg5"
   inkscape:version="1.1.1 (3bf5ae0d25, 2021-09-20)"
   sodipodi:docname="user-desktop.svg"
   xmlns:inkscape="http://www.inkscape.org/namespaces/inkscape"
   xmlns:sodipodi="http://sodipodi.sourceforge.net/DTD/sodipodi-0.dtd"
   xmlns="http://www.w3.org/2000/svg"
   xmlns:svg="http://www.w3.org/2000/svg">
  <sodipodi:namedview
     id="namedview7"
     pagecolor="#ffffff"
     bordercolor="#666666"
     borderopacity="1.0"
     inkscape:pageshadow="2"
     inkscape:pageopacity="0.0"
     inkscape:pagecheckerboard="0"
     inkscape:document-units="px"
     showgrid="false"
     inkscape:zoom="19.25"
     inkscape:cx="7.8961039"
     inkscape:cy="7.974026"
     inkscape:window-width="1366"
     inkscape:window-height="714"
     inkscape:window-x="0"
     inkscape:window-y="24"
     inkscape:window-maximized="1"
     inkscape:current-layer="layer1">
    <inkscape:grid
       type="xygrid"
       id="grid824" />
  </sodipodi:namedview>
  <defs
     id="defs2" />
  <g
     inkscape:label="Capa 1"
     inkscape:groupmode="layer"
     id="layer1">
    <path
       id="rect848"
       style="stroke-width:3;stroke-linecap:round;stroke-linejoin:round;stroke-opacity:0.5;paint-order:stroke fill markers;fill:#454545;fill-opacity:1"
       d="M 3 1 C 1.338 1 0 2.338 0 4 L 0 12 C 0 13.662 1.338 15 3 15 L 13 15 C 14.662 15 16 13.662 16 12 L 16 4 C 16 2.338 14.662 1 13 1 L 3 1 z M 3 2 L 13 2 C 14.108 2 15 2.892 15 4 L 15 12 C 15 13.108 14.108 14 13 14 L 3 14 C 1.892 14 1 13.108 1 12 L 1 4 C 1 2.892 1.892 2 3 2 z " />
    <path
       id="rect1555"
       style="fill:#454545;stroke-width:2.73861;stroke-linecap:round;stroke-linejoin:round;stroke-opacity:0.5;paint-order:stroke fill markers;fill-opacity:1"
       d="m 3.5,12 h 9 c 0.277,0 0.5,0.223 0.5,0.5 0,0.277 -0.223,0.5 -0.5,0.5 h -9 C 3.223,13 3,12.777 3,12.5 3,12.223 3.223,12 3.5,12 Z" />
  </g>
</svg>
