<?xml version="1.0" encoding="UTF-8" standalone="no"?>
<!-- Created with Inkscape (http://www.inkscape.org/) -->

<svg
   width="16"
   height="16"
   viewBox="0 0 16 16"
   version="1.1"
   id="svg5"
   inkscape:version="1.2.1 (9c6d41e410, 2022-07-14)"
   sodipodi:docname="menu-herramientas.svg"
   xmlns:inkscape="http://www.inkscape.org/namespaces/inkscape"
   xmlns:sodipodi="http://sodipodi.sourceforge.net/DTD/sodipodi-0.dtd"
   xmlns="http://www.w3.org/2000/svg"
   xmlns:svg="http://www.w3.org/2000/svg">
  <sodipodi:namedview
     id="namedview7"
     pagecolor="#ffffff"
     bordercolor="#666666"
     borderopacity="1.0"
     inkscape:pageshadow="2"
     inkscape:pageopacity="0.0"
     inkscape:pagecheckerboard="0"
     inkscape:document-units="px"
     showgrid="false"
     inkscape:zoom="16.90625"
     inkscape:cx="5.1756007"
     inkscape:cy="7.9852126"
     inkscape:window-width="1358"
     inkscape:window-height="698"
     inkscape:window-x="0"
     inkscape:window-y="0"
     inkscape:window-maximized="1"
     inkscape:current-layer="layer1"
     inkscape:showpageshadow="2"
     inkscape:deskcolor="#d1d1d1">
    <inkscape:grid
       type="xygrid"
       id="grid824" />
  </sodipodi:namedview>
  <defs
     id="defs2" />
  <g
     inkscape:label="Capa 1"
     inkscape:groupmode="layer"
     id="layer1">
    <path
       id="rect2045"
       style="stroke-width:2;stroke-opacity:0.5;fill:#545454;fill-opacity:1"
       d="M 6 1 C 4.892 1 4 1.892 4 3 L 4 5 L 5 5 L 5 3 C 5 2.446 5.446 2 6 2 L 10 2 C 10.554 2 11 2.446 11 3 L 11 5 L 12 5 L 12 3 C 12 1.892 11.108 1 10 1 L 6 1 z " />
    <path
       id="rect848"
       style="stroke-width:2.09762;stroke-opacity:0.5;fill:#545454;fill-opacity:1"
       d="M 3 4 C 1.338 4 0 5.338 0 7 L 0 12 C 0 13.662 1.338 15 3 15 L 13 15 C 14.662 15 16 13.662 16 12 L 16 7 C 16 5.338 14.662 4 13 4 L 3 4 z M 3 5 L 13 5 C 14.108 5 15 5.892 15 7 L 15 12 C 15 13.108 14.108 14 13 14 L 3 14 C 1.892 14 1 13.108 1 12 L 1 7 C 1 5.892 1.892 5 3 5 z " />
    <path
       id="rect2788"
       style="stroke-width:2;stroke-opacity:0.5;fill:#545454;fill-opacity:1"
       d="M 1 8 L 1 9 L 6 9 L 6 8 L 1 8 z M 10 8 L 10 9 L 16 9 L 16 8 L 10 8 z " />
    <path
       id="rect1450"
       d="M 6 7 C 5.446 7 5 7.446 5 8 L 5 9 C 5 9.554 5.446 10 6 10 L 10 10 C 10.554 10 11 9.554 11 9 L 11 8 C 11 7.446 10.554 7 10 7 L 6 7 z M 6 8 L 10 8 L 10 9 L 6 9 L 6 8 z "
       style="fill:#545454;fill-opacity:1" />
  </g>
</svg>
