<?xml version="1.0" encoding="UTF-8" standalone="no"?>
<!-- Created with Inkscape (http://www.inkscape.org/) -->

<svg
   width="16"
   height="16"
   viewBox="0 0 16 16"
   version="1.1"
   id="svg5"
   sodipodi:docname="menu-recargar.svg"
   inkscape:version="1.2.1 (9c6d41e410, 2022-07-14)"
   xmlns:inkscape="http://www.inkscape.org/namespaces/inkscape"
   xmlns:sodipodi="http://sodipodi.sourceforge.net/DTD/sodipodi-0.dtd"
   xmlns="http://www.w3.org/2000/svg"
   xmlns:svg="http://www.w3.org/2000/svg">
  <sodipodi:namedview
     id="namedview7"
     pagecolor="#ffffff"
     bordercolor="#666666"
     borderopacity="1.0"
     inkscape:pageshadow="2"
     inkscape:pageopacity="0.0"
     inkscape:pagecheckerboard="0"
     inkscape:document-units="px"
     showgrid="false"
     inkscape:zoom="5.8999222"
     inkscape:cx="-13.813741"
     inkscape:cy="7.9662067"
     inkscape:window-width="1358"
     inkscape:window-height="708"
     inkscape:window-x="0"
     inkscape:window-y="24"
     inkscape:window-maximized="1"
     inkscape:current-layer="layer1"
     inkscape:showpageshadow="2"
     inkscape:deskcolor="#d1d1d1">
    <inkscape:grid
       type="xygrid"
       id="grid832" />
  </sodipodi:namedview>
  <defs
     id="defs2" />
  <g
     inkscape:label="Capa 1"
     inkscape:groupmode="layer"
     id="layer1">
    <path
       style="color:#000000;fill:#4a9ff4;-inkscape-stroke:none;fill-opacity:1"
       d="m 9.469172,0.95304224 3.374643,2.95355646 a 0.78859,0.78859 0 0 1 0,1.1868192 L 9.469172,8.0469748 a 0.5011653,0.5011653 0 0 1 -0.7071111,-0.04697 v 0 a 0.50091862,0.50091862 0 0 1 0.04696,-0.7069373 L 12.000342,4.5000083 8.8090189,1.7069451 a 0.50091863,0.50091863 0 0 1 -0.04696,-0.7069368 v 0 A 0.5011653,0.5011653 0 0 1 9.469172,0.95304224 Z"
       id="path2503" />
    <path
       id="rect856"
       style="stroke-width:1.14416;stroke-linecap:round;stroke-linejoin:round;fill:#4a9ff4;fill-opacity:1"
       d="M 7.5 4 C 7.4285466 4 7.3601944 4.0142393 7.2988281 4.0410156 C 4.3077741 4.3863416 2 6.9133934 2 10 C 2 13.324 4.676 16 8 16 C 11.086607 16 13.613658 13.692226 13.958984 10.701172 C 13.985761 10.639806 14 10.571453 14 10.5 L 14 10 L 14 8.5 C 14 8.223 13.777 8 13.5 8 C 13.223 8 13 8.223 13 8.5 L 13 10 C 13 12.77 10.77 15 8 15 C 5.23 15 3 12.77 3 10 C 3 7.23 5.23 5 8 5 L 12.5 5 C 12.777 5 13 4.777 13 4.5 C 13 4.223 12.777 4 12.5 4 L 8 4 L 7.5 4 z " />
  </g>
</svg>
