<?xml version="1.0" encoding="UTF-8" standalone="no"?>
<!-- Created with Inkscape (http://www.inkscape.org/) -->

<svg
   width="24"
   height="24"
   viewBox="0 0 6.3499999 6.35"
   version="1.1"
   id="svg5"
   xml:space="preserve"
   inkscape:version="1.2.1 (9c6d41e410, 2022-07-14)"
   sodipodi:docname="cerrar.svg"
   inkscape:export-filename="cerrar.png"
   inkscape:export-xdpi="96"
   inkscape:export-ydpi="96"
   xmlns:inkscape="http://www.inkscape.org/namespaces/inkscape"
   xmlns:sodipodi="http://sodipodi.sourceforge.net/DTD/sodipodi-0.dtd"
   xmlns="http://www.w3.org/2000/svg"
   xmlns:svg="http://www.w3.org/2000/svg"><sodipodi:namedview
     id="namedview7"
     pagecolor="#ffffff"
     bordercolor="#000000"
     borderopacity="0.25"
     inkscape:showpageshadow="2"
     inkscape:pageopacity="0.0"
     inkscape:pagecheckerboard="0"
     inkscape:deskcolor="#d1d1d1"
     inkscape:document-units="mm"
     showgrid="false"
     inkscape:lockguides="true"
     inkscape:zoom="5.656854"
     inkscape:cx="0.44194176"
     inkscape:cy="12.197593"
     inkscape:window-width="1358"
     inkscape:window-height="708"
     inkscape:window-x="0"
     inkscape:window-y="24"
     inkscape:window-maximized="1"
     inkscape:current-layer="layer1"><inkscape:grid
       type="xygrid"
       id="grid132" /></sodipodi:namedview><defs
     id="defs2"><inkscape:path-effect
       effect="fillet_chamfer"
       id="path-effect945"
       is_visible="true"
       lpeversion="1"
       satellites_param="F,0,0,1,0,0.49994656,0,1 @ F,0,1,1,0,0.49994656,0,1 @ F,0,0,1,0,0.49994712,0,1 @ F,0,0,1,0,0.49994712,0,1"
       unit="px"
       method="auto"
       mode="F"
       radius="0"
       chamfer_steps="1"
       flexible="false"
       use_knot_distance="true"
       apply_no_radius="true"
       apply_with_radius="true"
       only_selected="false"
       hide_knots="false"
       nodesatellites_param="F,0,0,1,0,0.49994656,0,1 @ F,0,1,1,0,0.49994656,0,1 @ F,0,0,1,0,0.49994712,0,1 @ F,0,0,1,0,0.49994712,0,1" /></defs><g
     inkscape:label="Capa 1"
     inkscape:groupmode="layer"
     id="layer1"><rect
       style="opacity:1;fill:#323232;stroke-width:0.2;fill-opacity:1"
       id="rect186"
       width="6.3499999"
       height="6.3499999"
       x="0"
       y="0"
       ry="0" /><g
       inkscape:label="Capa 1"
       id="layer1-5"
       transform="matrix(0.26458333,0,0,0.26458333,1.0583333,1.0583333)"
       style="fill:#e12a2a;fill-opacity:1"><path
         style="color:#000000;fill:#e12a2a;-inkscape-stroke:none;fill-opacity:1"
         d="M 2,2 A 0.49994657,0.49994657 90.000001 0 0 2,2.7070312 L 13.292968,14 A 0.4999471,0.4999471 9.5492979e-7 0 0 14,14 v 0 a 0.4999471,0.4999471 89.999999 0 0 0,-0.707032 L 2.7070312,2 A 0.49994658,0.49994658 -180 0 0 2,2 Z"
         id="path859" /><path
         style="color:#000000;fill:#e12a2a;-inkscape-stroke:none;fill-opacity:1"
         d="m 14,2 a 0.49994657,0.49994657 0 0 1 0,0.7070312 L 2.7070322,14 a 0.4999471,0.4999471 0 0 1 -0.707032,0 v 0 a 0.4999471,0.4999471 0 0 1 0,-0.707032 L 13.292969,2 A 0.49994658,0.49994658 0 0 1 14,2 Z"
         id="path1140" /></g></g></svg>
