<?xml version="1.0" encoding="UTF-8" standalone="no"?>
<!-- Created with Inkscape (http://www.inkscape.org/) -->

<svg
   width="16"
   height="16"
   viewBox="0 0 16 16"
   version="1.1"
   id="svg5"
   inkscape:version="1.2.1 (9c6d41e410, 2022-07-14)"
   sodipodi:docname="menu-archivos.svg"
   xmlns:inkscape="http://www.inkscape.org/namespaces/inkscape"
   xmlns:sodipodi="http://sodipodi.sourceforge.net/DTD/sodipodi-0.dtd"
   xmlns="http://www.w3.org/2000/svg"
   xmlns:svg="http://www.w3.org/2000/svg">
  <sodipodi:namedview
     id="namedview7"
     pagecolor="#ffffff"
     bordercolor="#666666"
     borderopacity="1.0"
     inkscape:pageshadow="2"
     inkscape:pageopacity="0.0"
     inkscape:pagecheckerboard="0"
     inkscape:document-units="px"
     showgrid="false"
     inkscape:zoom="13.611806"
     inkscape:cx="2.9753583"
     inkscape:cy="8.0812201"
     inkscape:window-width="1358"
     inkscape:window-height="708"
     inkscape:window-x="0"
     inkscape:window-y="24"
     inkscape:window-maximized="1"
     inkscape:current-layer="layer1"
     inkscape:showpageshadow="2"
     inkscape:deskcolor="#d1d1d1">
    <inkscape:grid
       type="xygrid"
       id="grid880" />
  </sodipodi:namedview>
  <defs
     id="defs2">
    <inkscape:path-effect
       effect="fillet_chamfer"
       id="path-effect4522"
       is_visible="true"
       lpeversion="1"
       satellites_param="F,0,0,1,0,0,0,1 @ F,0,0,1,0,0,0,1 @ F,0,0,1,0,0,0,1 @ F,0,0,1,0,0,0,1 @ F,0,0,1,0,1,0,1 @ F,0,0,1,0,1,0,1 @ F,0,0,1,0,0,0,1 @ F,0,0,1,0,0,0,1 @ F,0,0,1,0,0,0,1 @ F,0,0,1,0,0,0,1 @ F,0,0,1,0,1,0,1 @ F,0,0,1,0,1,0,1"
       unit="px"
       method="auto"
       mode="F"
       radius="0"
       chamfer_steps="1"
       flexible="false"
       use_knot_distance="true"
       apply_no_radius="true"
       apply_with_radius="true"
       only_selected="false"
       hide_knots="false"
       nodesatellites_param="F,0,0,1,0,0,0,1 @ F,0,0,1,0,0,0,1 @ F,0,0,1,0,0,0,1 @ F,0,0,1,0,0,0,1 @ F,0,0,1,0,1,0,1 @ F,0,0,1,0,1,0,1 @ F,0,0,1,0,0,0,1 @ F,0,0,1,0,0,0,1 @ F,0,0,1,0,0,0,1 @ F,0,0,1,0,0,0,1 @ F,0,0,1,0,1,0,1 @ F,0,0,1,0,1,0,1" />
    <inkscape:path-effect
       effect="fillet_chamfer"
       id="path-effect2884"
       is_visible="true"
       lpeversion="1"
       satellites_param="F,0,0,1,0,0,0,1 @ F,0,0,1,0,0,0,1 @ F,0,0,1,0,0,0,1 @ F,0,0,1,0,0,0,1 @ F,0,0,1,0,0,0,1 @ F,0,0,1,0,0,0,1 @ F,0,0,1,0,1,0,1 @ F,0,0,1,0,1,0,1 @ F,0,0,1,0,0,0,1 @ F,0,0,1,0,0,0,1 @ F,0,0,1,0,0,0,1 @ F,0,0,1,0,0,0,1 @ F,0,0,1,0,0,0,1 @ F,0,0,1,0,0,0,1 @ F,0,0,1,0,1,0,1 @ F,0,0,1,0,1,0,1"
       unit="px"
       method="auto"
       mode="F"
       radius="0"
       chamfer_steps="1"
       flexible="false"
       use_knot_distance="true"
       apply_no_radius="true"
       apply_with_radius="true"
       only_selected="false"
       hide_knots="false"
       nodesatellites_param="F,0,0,1,0,0,0,1 @ F,0,0,1,0,0,0,1 @ F,0,0,1,0,0,0,1 @ F,0,0,1,0,0,0,1 @ F,0,0,1,0,0,0,1 @ F,0,0,1,0,0,0,1 @ F,0,0,1,0,1,0,1 @ F,0,0,1,0,1,0,1 @ F,0,0,1,0,0,0,1 @ F,0,0,1,0,0,0,1 @ F,0,0,1,0,0,0,1 @ F,0,0,1,0,0,0,1 @ F,0,0,1,0,0,0,1 @ F,0,0,1,0,0,0,1 @ F,0,0,1,0,1,0,1 @ F,0,0,1,0,1,0,1" />
  </defs>
  <g
     inkscape:label="Capa 1"
     inkscape:groupmode="layer"
     id="layer1">
    <path
       id="rect904"
       style="stroke-width:3;stroke-linecap:round;stroke-linejoin:round;stroke-opacity:0.5;paint-order:stroke fill markers;fill:#f1f1f1;fill-opacity:1"
       d="M 3 1 C 1.338 1 0 2.338 0 4 L 0 12 C 0 13.662 1.338 15 3 15 L 13 15 C 14.662 15 16 13.662 16 12 L 16 4 C 16 2.338 14.662 1 13 1 L 3 1 z M 3 2 L 13 2 C 14.108 2 15 2.892 15 4 L 15 12 C 15 13.108 14.108 14 13 14 L 3 14 C 1.892 14 1 13.108 1 12 L 1 4 C 1 2.892 1.892 2 3 2 z " />
    <path
       id="rect3362"
       style="fill:#f1f1f1;fill-opacity:1;stroke:none;stroke-width:3;stroke-linecap:round;stroke-linejoin:round;stroke-opacity:0.5;paint-order:stroke fill markers"
       d="M 3,5 C 1.338,5 0,6.338 0,8 H 1 C 1,6.892 1.892,6 3,6 H 6 A 4.236068,4.236068 13.282526 0 1 7.8944272,6.4472136 L 8.1055728,6.5527864 A 4.236068,4.236068 13.282526 0 0 10,7 h 3 c 1.108,0 2,0.892 2,2 h 1 C 16,7.338 14.662,6 13,6 H 10 A 4.236068,4.236068 13.282526 0 1 8.1055728,5.5527864 L 7.8944272,5.4472136 A 4.236068,4.236068 13.282526 0 0 6,5 Z" />
    <path
       id="rect4815"
       style="opacity:1;fill:#f1f1f1;fill-opacity:1;stroke:none;stroke-width:3;stroke-linecap:round;stroke-linejoin:round;stroke-opacity:0.5;paint-order:stroke fill markers"
       d="M 4 3 C 2.892 3 2 3.892 2 5 L 2 6 L 3 6 L 3 5 C 3 4.446 3.446 4 4 4 L 12 4 C 12.554 4 13 4.446 13 5 L 13 7 L 14 7 L 14 5 C 14 3.892 13.108 3 12 3 L 4 3 z " />
  </g>
</svg>
