<?xml version="1.0" encoding="UTF-8" standalone="no"?>
<!-- Created with Inkscape (http://www.inkscape.org/) -->

<svg
   width="16"
   height="16"
   viewBox="0 0 16 16"
   version="1.1"
   id="svg5"
   inkscape:version="1.2.1 (9c6d41e410, 2022-07-14)"
   sodipodi:docname="menu.svg"
   xmlns:inkscape="http://www.inkscape.org/namespaces/inkscape"
   xmlns:sodipodi="http://sodipodi.sourceforge.net/DTD/sodipodi-0.dtd"
   xmlns="http://www.w3.org/2000/svg"
   xmlns:svg="http://www.w3.org/2000/svg">
  <sodipodi:namedview
     id="namedview7"
     pagecolor="#ffffff"
     bordercolor="#666666"
     borderopacity="1.0"
     inkscape:pageshadow="2"
     inkscape:pageopacity="0.0"
     inkscape:pagecheckerboard="0"
     inkscape:document-units="px"
     showgrid="false"
     inkscape:zoom="18.25"
     inkscape:cx="1.0684932"
     inkscape:cy="7.9452055"
     inkscape:window-width="1358"
     inkscape:window-height="708"
     inkscape:window-x="0"
     inkscape:window-y="24"
     inkscape:window-maximized="1"
     inkscape:current-layer="layer1"
     inkscape:showpageshadow="2"
     inkscape:deskcolor="#d1d1d1">
    <inkscape:grid
       type="xygrid"
       id="grid824" />
  </sodipodi:namedview>
  <defs
     id="defs2" />
  <g
     inkscape:label="Capa 1"
     inkscape:groupmode="layer"
     id="layer1">
    <path
       id="rect1634"
       style="stroke-width:3;stroke-opacity:0.5;fill:#f1f1f1;fill-opacity:1"
       d="M 2,1 C 1.446,1 1,1.446 1,2 V 4 C 1,4.554 1.446,5 2,5 H 4 C 4.554,5 5,4.554 5,4 V 2 C 5,1.446 4.554,1 4,1 Z M 2,2 H 4 V 4 H 2 Z" />
    <path
       id="rect1634-5"
       style="stroke-width:3;stroke-opacity:0.5;fill:#f1f1f1;fill-opacity:1"
       d="M 2,6 C 1.446,6 1,6.446 1,7 v 2 c 0,0.554 0.446,1 1,1 H 4 C 4.554,10 5,9.554 5,9 V 7 C 5,6.446 4.554,6 4,6 Z M 2,7 H 4 V 9 H 2 Z" />
    <path
       id="rect1634-5-7"
       style="stroke-width:3;stroke-opacity:0.5;fill:#f1f1f1;fill-opacity:1"
       d="m 2,11 c -0.554,0 -1,0.446 -1,1 v 2 c 0,0.554 0.446,1 1,1 h 2 c 0.554,0 1,-0.446 1,-1 V 12 C 5,11.446 4.554,11 4,11 Z m 0,1 h 2 v 2 H 2 Z" />
    <path
       id="rect1634-50"
       style="stroke-width:3;stroke-opacity:0.5;fill:#f1f1f1;fill-opacity:1"
       d="M 7,1 C 6.446,1 6,1.446 6,2 V 4 C 6,4.554 6.446,5 7,5 H 9 C 9.554,5 10,4.554 10,4 V 2 C 10,1.446 9.554,1 9,1 Z M 7,2 H 9 V 4 H 7 Z" />
    <path
       id="rect1634-5-6"
       style="stroke-width:3;stroke-opacity:0.5;fill:#f1f1f1;fill-opacity:1"
       d="M 7,6 C 6.446,6 6,6.446 6,7 v 2 c 0,0.554 0.446,1 1,1 h 2 c 0.554,0 1,-0.446 1,-1 V 7 C 10,6.446 9.554,6 9,6 Z M 7,7 H 9 V 9 H 7 Z" />
    <path
       id="rect1634-5-7-3"
       style="stroke-width:3;stroke-opacity:0.5;fill:#f1f1f1;fill-opacity:1"
       d="m 7,11 c -0.554,0 -1,0.446 -1,1 v 2 c 0,0.554 0.446,1 1,1 h 2 c 0.554,0 1,-0.446 1,-1 V 12 C 10,11.446 9.554,11 9,11 Z m 0,1 h 2 v 2 H 7 Z" />
    <path
       id="rect1634-50-0"
       style="stroke-width:3;stroke-opacity:0.5;fill:#f1f1f1;fill-opacity:1"
       d="m 12,1 c -0.554,0 -1,0.446 -1,1 v 2 c 0,0.554 0.446,1 1,1 h 2 c 0.554,0 1,-0.446 1,-1 V 2 C 15,1.446 14.554,1 14,1 Z m 0,1 h 2 v 2 h -2 z" />
    <path
       id="rect1634-5-6-9"
       style="stroke-width:3;stroke-opacity:0.5;fill:#f1f1f1;fill-opacity:1"
       d="m 12,6 c -0.554,0 -1,0.446 -1,1 v 2 c 0,0.554 0.446,1 1,1 h 2 c 0.554,0 1,-0.446 1,-1 V 7 C 15,6.446 14.554,6 14,6 Z m 0,1 h 2 v 2 h -2 z" />
    <path
       id="rect1634-5-7-3-2"
       style="stroke-width:3;stroke-opacity:0.5;fill:#f1f1f1;fill-opacity:1"
       d="m 12,11 c -0.554,0 -1,0.446 -1,1 v 2 c 0,0.554 0.446,1 1,1 h 2 c 0.554,0 1,-0.446 1,-1 v -2 c 0,-0.554 -0.446,-1 -1,-1 z m 0,1 h 2 v 2 h -2 z" />
  </g>
</svg>
